<svg xmlns="http://www.w3.org/2000/svg" viewBox="0 0 512 512">
  <defs>
    <linearGradient id="bg" x1="0" y1="0" x2="0" y2="1">
      <stop offset="0%" stop-color="#7965AF"/>
      <stop offset="100%" stop-color="#4a3880"/>
    </linearGradient>
    <linearGradient id="cl" x1="1" y1="0" x2="0" y2="0">
      <stop offset="0%" stop-color="#ffffff" stop-opacity="0.97"/>
      <stop offset="100%" stop-color="#e8d5ff" stop-opacity="0.75"/>
    </linearGradient>
    <linearGradient id="cr" x1="0" y1="0" x2="1" y2="0">
      <stop offset="0%" stop-color="#ffffff" stop-opacity="0.97"/>
      <stop offset="100%" stop-color="#e8d5ff" stop-opacity="0.75"/>
    </linearGradient>
  </defs>
  <!-- Background rounded square (safe zone aware) -->
  <rect width="512" height="512" rx="88" fill="url(#bg)"/>
  <!-- Window light glow -->
  <rect x="196" y="126" width="120" height="286" rx="6" fill="#c9b8ff" opacity="0.22"/>
  <!-- Left curtain panel -->
  <path d="M58 126 C82 195 62 268 78 386 L208 386 C192 268 212 195 188 126 Z" fill="url(#cl)"/>
  <!-- Right curtain panel -->
  <path d="M454 126 C430 195 450 268 434 386 L304 386 C320 268 300 195 324 126 Z" fill="url(#cr)"/>
  <!-- Tieback left -->
  <ellipse cx="153" cy="262" rx="38" ry="15" fill="#FFD166" opacity="0.9"/>
  <!-- Tieback right -->
  <ellipse cx="359" cy="262" rx="38" ry="15" fill="#FFD166" opacity="0.9"/>
  <!-- Curtain rod -->
  <rect x="46" y="108" width="420" height="20" rx="10" fill="#EEC85A"/>
  <!-- Rod end finials -->
  <circle cx="46" cy="118" r="14" fill="#FFD166"/>
  <circle cx="466" cy="118" r="14" fill="#FFD166"/>
</svg>
